<svg width="637" height="122" viewBox="0 0 637 122" fill="none" xmlns="http://www.w3.org/2000/svg" role="img" aria-label="monkrag">
  <title>monkrag</title>
  <defs>
    <linearGradient id="mr-warm" x1="20" y1="40" x2="140" y2="120" gradientUnits="userSpaceOnUse">
      <stop offset="0" stop-color="#E9A294"/>
      <stop offset="0.4" stop-color="#C2A4CD"/>
      <stop offset="0.7" stop-color="#A2ABDE"/>
      <stop offset="1" stop-color="#88B2EC"/>
    </linearGradient>
  </defs>
  <g transform="translate(6.00,12.77) scale(0.97959) translate(-20.00,-33.00)">
    <g stroke="url(#mr-warm)" stroke-width="7" stroke-linecap="round">
      <line x1="80" y1="80" x2="40" y2="44"/>
      <line x1="80" y1="80" x2="126" y2="50"/>
      <line x1="80" y1="80" x2="116" y2="120"/>
    </g>
    <circle cx="28" cy="118" r="8" fill="#D1CDC8"/>
    <circle cx="140" cy="104" r="7" fill="#D1CDC8"/>
    <circle cx="40" cy="44" r="11" fill="url(#mr-warm)"/>
    <circle cx="126" cy="50" r="11" fill="url(#mr-warm)"/>
    <circle cx="116" cy="120" r="11" fill="url(#mr-warm)"/>
    <circle cx="80" cy="80" r="16" fill="#C96F5A"/>
  </g>
  <g transform="translate(164.41,6.00) scale(0.120000,-0.120000) translate(-62.10,-700.00)">
      <g transform="translate(0.00,0)" fill="#F4F1EC"><path d="M62.1002197265625 0V500H167.119384765625L171.83935546875 432.72991943359375Q195.26934814453125 471.5799560546875 231.12435913085938 491.78997802734375Q266.9793701171875 512 312.96942138671875 512Q373.2593994140625 512 414.96942138671875 485.219970703125Q456.679443359375 458.43994140625 475.679443359375 402.8798828125Q497.96942138671875 455.86993408203125 538.0394287109375 483.9349670410156Q578.1094360351562 512 632.239501953125 512Q718.5394287109375 512 765.6744689941406 456.42999267578125Q812.8095092773438 400.8599853515625 812.239501953125 286V0H700.640380859375V256Q700.640380859375 315.7803955078125 687.8703002929688 348.2455749511719Q675.1002197265625 380.71075439453125 653.1950988769531 393.8457946777344Q631.2899780273438 406.9808349609375 602.0298461914062 407.41082763671875Q549.7796630859375 408.27081298828125 521.3745422363281 370.1755676269531Q492.96942138671875 332.080322265625 492.96942138671875 260.86993408203125V0H381.37030029296875V256Q381.37030029296875 315.7803955078125 368.6002197265625 348.2455749511719Q355.83013916015625 380.71075439453125 333.9250183105469 393.8457946777344Q312.0198974609375 406.9808349609375 282.759765625 407.41082763671875Q230.50958251953125 408.27081298828125 202.10446166992188 370.1755676269531Q173.6993408203125 332.080322265625 173.6993408203125 260.86993408203125V0Z"/></g>
      <g transform="translate(864.00,0)" fill="#F4F1EC"><path d="M291.9312111322134 -12Q216.51237366097104 -12 158.3770197768884 21.5Q100.24166589280578 55 67.24592449913726 114.0Q34.25018310546875 173 34.25018310546875 250Q34.25018310546875 327 66.71739464788861 386.0Q99.18460619030847 445 157.31138814528597 478.5Q215.43817010026348 512 289.7985578264509 512Q365.2062749572325 512 423.33305691221 478.5Q481.4598388671875 445 513.9648132324219 386.0Q546.4697875976562 327 546.4697875976562 250Q546.4697875976562 173 513.9977881308714 114.0Q481.52578866408646 55 423.9141767068875 21.5Q366.3025647496885 -12 291.9312111322134 -12ZM291.8599853515625 90.72918701171875Q333.4254430551998 90.72918701171875 364.9844016820355 111.1189287710881Q396.54336030887123 131.50867053045744 414.6320317169356 167.28689663652062Q432.720703125 203.06512274258378 432.720703125 250Q432.720703125 296.9348772574162 414.5902141746617 332.7131033634794Q396.45972522432334 368.49132946954256 364.0562981641442 388.8810712289119Q331.6528711039651 409.27081298828125 289.99132202659194 409.27081298828125Q248.32977294921875 409.27081298828125 216.30118854229266 388.8933952673158Q184.27260413536658 368.5159775463503 166.1359358567458 332.7593766397505Q147.999267578125 297.00277573315066 147.999267578125 250.09626701696595Q147.999267578125 203.18975830078125 166.40936279296875 167.4395751953125Q184.8194580078125 131.68939208984375 217.39700980808425 111.20928955078125Q249.97456160835597 90.72918701171875 291.8599853515625 90.72918701171875Z"/></g>
      <g transform="translate(1445.00,0)" fill="#F4F1EC"><path d="M62.1002197265625 0V500H167.119384765625L171.83935546875 429.30987548828125Q196.40936279296875 469.43994140625 234.82940673828125 490.719970703125Q273.24945068359375 512 323.22955322265625 512Q382.51953125 512 425.0845642089844 488.07000732421875Q467.64959716796875 464.1400146484375 490.56964111328125 413.57000732421875Q513.4896850585938 363 512.919677734375 282.00994873046875V0H401.320556640625V256Q401.320556640625 315.7803955078125 387.41046142578125 348.2455749511719Q373.5003662109375 380.71075439453125 349.03021240234375 393.8457946777344Q324.56005859375 406.9808349609375 292.44989013671875 407.41082763671875Q235.6396484375 408.27081298828125 204.66949462890625 370.1755676269531Q173.6993408203125 332.080322265625 173.6993408203125 260.86993408203125V0Z"/></g>
      <g transform="translate(2009.00,0)" fill="#F4F1EC"><path d="M62.1002197265625 0V700H173.6993408203125V297.98931884765625L361.13006591796875 500H495.88909912109375L308.30914306640625 293.25018310546875L512.7291870117188 0H379.83013916015625L236.34967041015625 212.8408203125L173.6993408203125 145.19049072265625V0Z"/></g>
      <g transform="translate(2526.00,0)" fill="#C96F5A"><path d="M62.1002197265625 0V500H173.6993408203125V409.4200439453125Q203.98931884765625 456.4200439453125 251.77432250976562 479.21002197265625Q299.559326171875 502 350.6993408203125 502V394.97088623046875Q305.40936279296875 394.97088623046875 264.90936279296875 382.4808349609375Q224.40936279296875 369.99078369140625 199.05435180664062 341.8756408691406Q173.6993408203125 313.760498046875 173.6993408203125 267.53021240234375V0Z"/></g>
      <g transform="translate(2889.00,0)" fill="#C96F5A"><path d="M222.68311291963377 -12Q133.2497456765005 -12 83.74974567650051 28.141658189216685Q34.24974567650051 68.28331637843337 34.24974567650051 141Q34.24974567650051 219.30010172939978 86.61648016276705 259.94175991861647Q138.98321464903358 300.58341810783315 233.43336724313326 300.58341810783315H359.9328585961343Q353.7828077314344 356.21617497456765 328.6663275686674 385.1075788402849Q303.5498474059003 413.99898270600204 254.90030518819938 413.99898270600204Q219.2171922685656 413.99898270600204 191.94226856561545 398.86571719226856Q164.66734486266532 383.7324516785351 146.10071210579858 352.18260427263476L47.66632756866734 387.6495422177009Q63.64954221770091 420.7828077314344 90.50788402848423 449.1579348931841Q117.36622583926754 477.53306205493385 157.8914038657172 494.76653102746695Q198.41658189216685 512 254.90030518819938 512Q328.3504577822991 512 377.0089013224822 483.56663275686674Q425.6673448626653 455.1332655137335 449.45905391658187 402.2082909460834Q473.2507629704985 349.28331637843337 472.53407934893187 274.4501525940997L470.3840284842319 0H366.6495422177009L363.7995930824008 61.3997965412004Q343.6663275686673 25.98321464903357 308.17472024415054 6.991607324516785Q272.6831129196338 -12 222.68311291963377 -12ZM237.31688708036623 82.41759918616481Q273.8499491353001 82.41759918616481 302.2581383519837 98.69252288911495Q330.6663275686673 114.9674465920651 346.51627670396743 142.93387589013224Q362.36622583926754 170.90030518819938 362.36622583926754 205.3997965412004V214.76602238046794H268.6673448626653Q201.68413021363173 214.76602238046794 174.84257375381486 196.1495422177009Q148.00101729399796 177.53306205493388 148.00101729399796 143.86673448626652Q148.00101729399796 115.06714140386572 171.54247202441505 98.74237029501526Q195.08392675483213 82.41759918616481 237.31688708036623 82.41759918616481Z"/></g>
      <g transform="translate(3413.00,0)" fill="#C96F5A"><path d="M277.1798095703125 -212.8599853515625Q223.5799560546875 -212.8599853515625 181.49502563476562 -204.14996337890625Q139.41009521484375 -195.43994140625 110.400146484375 -183.0799560546875Q81.39019775390625 -170.719970703125 65.37030029296875 -159.7000732421875L108.43994140625 -69.71075439453125Q122.159912109375 -77.1407470703125 145.36993408203125 -87.6407470703125Q168.5799560546875 -98.1407470703125 200.86495971679688 -105.85574340820312Q233.14996337890625 -113.57073974609375 273.30987548828125 -113.57073974609375Q316.280029296875 -113.57073974609375 349.97015380859375 -96.440673828125Q383.6602783203125 -79.31060791015625 402.8603515625 -43.3404541015625Q422.0604248046875 -7.37030029296875 422.0604248046875 48.5799560546875V98.85003662109375Q396.21038818359375 57.43994140625 354.580322265625 33.8798828125Q312.95025634765625 10.31982421875 260.25018310546875 10.31982421875Q192.1002197265625 10.31982421875 141.31521606445312 40.954864501953125Q90.53021240234375 71.58990478515625 62.39019775390625 127.0799560546875Q34.25018310546875 182.57000732421875 34.25018310546875 256.280029296875Q34.25018310546875 333.8599853515625 62.39019775390625 391.0749816894531Q90.53021240234375 448.28997802734375 141.31521606445312 480.1449890136719Q192.1002197265625 512 260.25018310546875 512Q312.95025634765625 512 354.580322265625 487.9349670410156Q396.21038818359375 463.86993408203125 422.0604248046875 419.44989013671875V500H533.6595458984375V52.0198974609375Q533.6595458984375 -33.2601318359375 501.58953857421875 -92.69509887695312Q469.51953125 -152.13006591796875 411.7245788574219 -182.49502563476562Q353.92962646484375 -212.8599853515625 277.1798095703125 -212.8599853515625ZM290.7398681640625 104.59912109375Q328.85003662109375 104.59912109375 357.4651794433594 124.64923095703125Q386.080322265625 144.6993408203125 402.1354064941406 179.51953125Q418.19049072265625 214.3397216796875 418.19049072265625 259.28997802734375Q418.19049072265625 304.53021240234375 401.92041015625 339.0653991699219Q385.65032958984375 373.6005859375 357.0351867675781 393.15069580078125Q328.4200439453125 412.7008056640625 289.7398681640625 412.7008056640625Q249.7796630859375 412.7008056640625 219.239501953125 393.15069580078125Q188.6993408203125 373.6005859375 171.57424926757812 339.0653991699219Q154.44915771484375 304.53021240234375 154.0191650390625 259.28997802734375Q154.44915771484375 214.3397216796875 171.8592529296875 179.51953125Q189.26934814453125 144.6993408203125 220.02450561523438 124.64923095703125Q250.7796630859375 104.59912109375 290.7398681640625 104.59912109375Z"/></g>
  </g>
</svg>
